<?xml version="1.0" encoding="UTF-8"?> <svg xmlns="http://www.w3.org/2000/svg" width="100" height="100" viewBox="0 0 100 100" fill="none"> <path d="M32.781 53.0645C16.205 53.0645 2.71899 66.5505 2.71899 83.1265C2.71899 83.9555 3.39099 84.6265 4.21899 84.6265H61.347C62.175 84.6265 62.847 83.9555 62.847 83.1265C62.847 66.5505 49.359 53.0645 32.781 53.0645ZM5.75999 81.6265C6.54099 67.3995 18.363 56.0645 32.781 56.0645C47.201 56.0645 59.024 67.3995 59.805 81.6265H5.75999Z" fill="#FA4856"></path> <path d="M33.284 49.1489C42.882 49.1489 50.689 41.3399 50.689 31.7409C50.689 22.1439 42.881 14.3369 33.284 14.3369C23.685 14.3369 15.876 22.1449 15.876 31.7409C15.876 41.3399 23.686 49.1489 33.284 49.1489ZM33.284 17.3359C41.227 17.3359 47.689 23.7979 47.689 31.7399C47.689 39.6849 41.227 46.1479 33.284 46.1479C25.34 46.1479 18.876 39.6849 18.876 31.7399C18.876 23.7979 25.34 17.3359 33.284 17.3359Z" fill="#FA4856"></path> <path d="M73.5099 60.3965C69.4559 60.3965 65.4719 61.4795 61.9889 63.5285C61.2749 63.9485 61.0369 64.8675 61.4569 65.5815C61.8769 66.2965 62.7969 66.5335 63.5109 66.1145C66.5329 64.3365 69.9909 63.3965 73.5109 63.3965C83.8869 63.3965 92.4189 71.4455 93.1879 81.6265H68.3399C67.5119 81.6265 66.8399 82.2975 66.8399 83.1265C66.8399 83.9555 67.5119 84.6265 68.3399 84.6265H94.7439C95.5719 84.6265 96.2439 83.9555 96.2439 83.1265C96.2429 70.5935 86.0449 60.3965 73.5099 60.3965Z" fill="#FA4856"></path> <path d="M73.8759 55.902C81.2239 55.902 87.2009 49.924 87.2009 42.578C87.2009 35.229 81.2229 29.251 73.8759 29.251C66.5309 29.251 60.5559 35.23 60.5559 42.578C60.5559 49.924 66.5309 55.902 73.8759 55.902ZM73.8759 32.25C79.5689 32.25 84.2009 36.883 84.2009 42.577C84.2009 48.27 79.5689 52.901 73.8759 52.901C68.1859 52.901 63.5559 48.27 63.5559 42.577C63.5559 36.883 68.1859 32.25 73.8759 32.25Z" fill="#FA4856"></path> </svg> 