<?xml version="1.0" encoding="UTF-8"?> <svg xmlns="http://www.w3.org/2000/svg" width="101" height="101" viewBox="0 0 101 101" fill="none"> <path d="M50.349 16.7266C31.845 16.7266 16.791 31.7856 16.791 50.2956C16.791 68.8046 31.845 83.8616 50.349 83.8616C68.858 83.8616 83.916 68.8036 83.916 50.2956C83.916 49.4666 83.244 48.7956 82.416 48.7956H51.849V18.2266C51.849 17.3976 51.178 16.7266 50.349 16.7266ZM80.88 51.7956C80.095 67.9556 66.701 80.8616 50.349 80.8616C33.499 80.8616 19.791 67.1496 19.791 50.2956C19.791 33.9426 32.693 20.5476 48.849 19.7626V50.2956C48.849 51.1236 49.52 51.7956 50.349 51.7956H80.88Z" fill="white"></path> <path d="M78.8899 79.0783C78.0679 79.8883 77.1949 80.6613 76.3009 81.4003C74.7269 82.6953 73.0509 83.8853 71.3089 84.9303C52.0459 96.4973 26.9649 90.2393 15.3999 70.9813C9.79592 61.6503 8.16092 50.6963 10.7969 40.1353C13.4329 29.5763 20.0229 20.6753 29.3539 15.0723C38.6849 9.46734 49.6399 7.83234 60.1979 10.4673C70.4429 13.0233 79.1179 19.3093 84.7439 28.2023L81.2569 27.0813C80.4669 26.8283 79.6229 27.2633 79.3699 28.0503C79.1159 28.8393 79.5499 29.6833 80.3389 29.9373L87.3059 32.1763C87.4579 32.2253 87.6139 32.2483 87.7649 32.2483C88.3969 32.2483 88.9839 31.8473 89.1909 31.2153L91.5109 24.1343C91.7689 23.3463 91.3389 22.4993 90.5519 22.2413C89.7619 21.9823 88.9169 22.4123 88.6589 23.1993L87.4549 26.8753C81.4199 17.1793 72.0309 10.3263 60.9249 7.55534C49.5869 4.72934 37.8269 6.48434 27.8089 12.5003C17.7919 18.5163 10.7159 28.0733 7.88592 39.4093C5.05592 50.7473 6.81092 62.5083 12.8269 72.5263C21.0219 86.1713 35.5329 93.7363 50.3989 93.7363C58.0609 93.7363 65.8189 91.7253 72.8529 87.5023C73.6139 87.0453 74.3599 86.5563 75.0959 86.0513C75.1289 86.0323 75.1649 86.0243 75.1959 86.0033C76.0899 85.3893 76.9499 84.7483 77.7489 84.1023C77.8919 83.9873 78.0299 83.8623 78.1719 83.7453C78.2699 83.6653 78.3709 83.5883 78.4679 83.5073C78.4939 83.4853 78.5129 83.4593 78.5379 83.4363C79.3819 82.7253 80.2109 81.9883 80.9959 81.2153C81.5859 80.6343 81.5939 79.6843 81.0119 79.0943C80.4309 78.5043 79.4789 78.4963 78.8899 79.0783Z" fill="white"></path> <path d="M88.7158 67.7042C87.9748 67.3312 87.0728 67.6272 86.6998 68.3662C85.6218 70.5012 84.3628 72.5372 82.9598 74.4182C82.4648 75.0822 82.6018 76.0222 83.2648 76.5182C83.5348 76.7192 83.8488 76.8162 84.1608 76.8162C84.6178 76.8162 85.0698 76.6082 85.3638 76.2132C86.8708 74.1922 88.2208 72.0082 89.3778 69.7202C89.7508 68.9792 89.4548 68.0772 88.7158 67.7042Z" fill="white"></path> <path d="M92.1889 55.9656C91.3789 55.8256 90.5939 56.3606 90.4459 57.1756C90.0469 59.3916 89.4619 61.5886 88.7089 63.7036C88.4309 64.4836 88.8389 65.3426 89.6189 65.6196C89.7849 65.6796 89.9549 65.7066 90.1219 65.7066C90.7379 65.7066 91.3159 65.3236 91.5349 64.7096C92.3429 62.4396 92.9699 60.0846 93.3989 57.7086C93.5459 56.8936 93.0049 56.1126 92.1889 55.9656Z" fill="white"></path> </svg> 