<?xml version="1.0" encoding="UTF-8"?> <svg xmlns="http://www.w3.org/2000/svg" width="101" height="101" viewBox="0 0 101 101" fill="none"> <path d="M76.21 9H24.79C23.7848 9 22.8208 9.3993 22.1101 10.1101C21.3993 10.8208 21 11.7848 21 12.79V89.21C21 90.2152 21.3993 91.1792 22.1101 91.8899C22.8208 92.6007 23.7848 93 24.79 93H76.21C77.2152 93 78.1792 92.6007 78.8899 91.8899C79.6007 91.1792 80 90.2152 80 89.21V12.79C80 11.7848 79.6007 10.8208 78.8899 10.1101C78.1792 9.3993 77.2152 9 76.21 9V9ZM24.79 12H76.21C76.4187 12.0026 76.6182 12.0867 76.7657 12.2343C76.9133 12.3818 76.9974 12.5813 77 12.79V75H24V12.79C24 12.5805 24.0832 12.3795 24.2314 12.2314C24.3795 12.0832 24.5805 12 24.79 12ZM76.21 90H24.79C24.5813 89.9974 24.3818 89.9133 24.2343 89.7657C24.0867 89.6182 24.0026 89.4187 24 89.21V78H77V89.21C76.9974 89.4187 76.9133 89.6182 76.7657 89.7657C76.6182 89.9133 76.4187 89.9974 76.21 90V90Z" fill="#FA4856"></path> <path d="M42.5 21H58.5C58.8978 21 59.2794 20.842 59.5607 20.5607C59.842 20.2794 60 19.8978 60 19.5C60 19.1022 59.842 18.7206 59.5607 18.4393C59.2794 18.158 58.8978 18 58.5 18H42.5C42.1022 18 41.7206 18.158 41.4393 18.4393C41.158 18.7206 41 19.1022 41 19.5C41 19.8978 41.158 20.2794 41.4393 20.5607C41.7206 20.842 42.1022 21 42.5 21V21Z" fill="#FA4856"></path> <path d="M50.49 81.5997C49.9955 81.6017 49.5128 81.7502 49.1028 82.0266C48.6927 82.3029 48.3739 82.6947 48.1865 83.1522C47.9991 83.6098 47.9516 84.1126 48.05 84.5972C48.1484 85.0818 48.3883 85.5263 48.7393 85.8745C49.0903 86.2227 49.5367 86.459 50.0221 86.5536C50.5074 86.6481 51.0099 86.5966 51.4659 86.4055C51.922 86.2145 52.3111 85.8925 52.5842 85.4803C52.8573 85.0681 53.002 84.5841 53 84.0897C53 83.761 52.9349 83.4356 52.8085 83.1322C52.6822 82.8288 52.497 82.5534 52.2636 82.3219C52.0303 82.0904 51.7534 81.9074 51.449 81.7835C51.1446 81.6595 50.8187 81.597 50.49 81.5997V81.5997Z" fill="#FA4856"></path> <path d="M35.4301 63.0003C35.5344 63.2953 35.7283 63.5503 35.9847 63.7296C36.2412 63.9089 36.5472 64.0036 36.8601 64.0003H64.1401C64.453 64.0036 64.7591 63.9089 65.0155 63.7296C65.2719 63.5503 65.4658 63.2953 65.5701 63.0003L71.4301 45.0003C71.5039 44.7757 71.5224 44.5366 71.4841 44.3034C71.4458 44.0701 71.3518 43.8495 71.2101 43.6603C71.0765 43.461 70.8967 43.2969 70.686 43.182C70.4753 43.067 70.24 43.0047 70.0001 43.0003H60.8101L57.0001 32.2703C56.9344 32.0845 56.8328 31.9134 56.7011 31.7668C56.5693 31.6203 56.4099 31.5011 56.2321 31.4162C56.0543 31.3312 55.8615 31.2821 55.6647 31.2716C55.4679 31.2612 55.2709 31.2896 55.0851 31.3553C54.8993 31.4209 54.7282 31.5226 54.5817 31.6543C54.4351 31.7861 54.316 31.9455 54.231 32.1233C54.146 32.3011 54.0969 32.4939 54.0865 32.6907C54.076 32.8875 54.1044 33.0845 54.1701 33.2703L57.6301 43.0003H43.5801L47.0001 33.2603C47.1284 32.8849 47.1038 32.4741 46.9317 32.1167C46.7595 31.7593 46.4536 31.484 46.0801 31.3503C45.8944 31.284 45.6973 31.2553 45.5004 31.2658C45.3035 31.2762 45.1106 31.3257 44.9329 31.4113C44.7552 31.4969 44.5963 31.6169 44.4654 31.7643C44.3345 31.9118 44.2341 32.0837 44.1701 32.2703L40.4001 43.0003H31.0001C30.7637 43.0002 30.5307 43.0564 30.3203 43.1642C30.1099 43.272 29.9281 43.4284 29.7901 43.6203C29.6418 43.814 29.544 44.0416 29.5056 44.2825C29.4672 44.5234 29.4894 44.7701 29.5701 45.0003L35.4301 63.0003ZM39.3401 46.0003L38.1901 49.2603C38.0575 49.6356 38.0794 50.0481 38.251 50.4073C38.4226 50.7664 38.7298 51.0427 39.1051 51.1753C39.4804 51.3079 39.893 51.286 40.2521 51.1144C40.6112 50.9428 40.8875 50.6356 41.0201 50.2603L42.5201 46.0003H58.6801L60.1901 50.2603C60.292 50.5529 60.4825 50.8064 60.7353 50.9857C60.988 51.1649 61.2903 51.2609 61.6001 51.2603C61.7702 51.2638 61.9396 51.2367 62.1001 51.1803C62.4723 51.0427 62.7754 50.7641 62.9438 50.4048C63.1122 50.0455 63.1325 49.6344 63.0001 49.2603L61.8701 46.0003H67.9301L63.0501 61.0003H38.0001L33.0701 46.0003H39.3401Z" fill="#FA4856"></path> </svg> 