<?xml version="1.0" encoding="UTF-8"?> <svg xmlns="http://www.w3.org/2000/svg" width="360" height="274" viewBox="0 0 360 274" fill="none"> <g clip-path="url(#clip0)"> <path d="M359.2 158.7C359.2 171.3 348.9 181.6 336.3 181.6C323.7 181.6 313.4 171.3 313.4 158.7C313.4 146.1 323.7 135.8 336.3 135.8C348.9 135.8 359.2 146 359.2 158.7Z" fill="#EF382E"></path> <path d="M222.9 91L254 45.8V0H155L123.5 45.8H198.2L159.8 101.7L182.7 141.4C189.5 137.5 197.4 135.2 205.9 135.2C231.5 135.2 252.3 155.9 252.3 181.6C252.3 207.3 231.5 228 205.9 228C180.3 228 159.5 207.2 159.5 181.6H113.7C113.7 232.5 155 273.8 205.8 273.8C256.7 273.8 298 232.5 298 181.6C298 136.5 265.6 99 222.9 91V91ZM92 0C75.2 0 59.5 4.5 45.9 12.4V0H0V181.6H45.9V92C45.9 66.5 66.5 45.9 92 45.9L107.4 45.8L138.9 0H92Z" fill="white"></path> </g> <defs> <clipPath id="clip0"> <rect width="359.2" height="273.7" fill="white"></rect> </clipPath> </defs> </svg> 