<?xml version="1.0" encoding="UTF-8"?> <svg xmlns="http://www.w3.org/2000/svg" width="101" height="101" viewBox="0 0 101 101" fill="none"> <path d="M67.853 16.1943C59.829 16.1943 52.929 21.1033 50.001 28.0763C47.071 21.1033 40.168 16.1943 32.14 16.1943C21.467 16.1943 12.783 24.8753 12.783 35.5463C12.783 39.6643 14.113 43.6343 16.663 47.0713L48.83 87.2433C49.115 87.5983 49.545 87.8053 50.001 87.8053H50.002C50.458 87.8053 50.889 87.5973 51.173 87.2413L84.036 46.0573C84.067 46.0173 84.098 45.9753 84.126 45.9323C86.149 42.7803 87.219 39.1883 87.219 35.5463C87.22 24.8753 78.531 16.1943 67.853 16.1943ZM81.643 44.2483L49.999 83.9043L19.038 45.2403C16.908 42.3673 15.782 39.0153 15.782 35.5463C15.782 26.5293 23.12 19.1943 32.139 19.1943C41.161 19.1943 48.501 26.5293 48.501 35.5463C48.501 36.3753 49.172 37.0463 50.001 37.0463C50.83 37.0463 51.501 36.3753 51.501 35.5463C51.501 26.5293 58.836 19.1943 67.853 19.1943C76.877 19.1943 84.22 26.5293 84.22 35.5463C84.22 38.5893 83.329 41.5963 81.643 44.2483Z" fill="#FA4856"></path> </svg> 