<?xml version="1.0" encoding="UTF-8"?> <svg xmlns="http://www.w3.org/2000/svg" width="100" height="100" viewBox="0 0 100 100" fill="none"> <path d="M88 77.5H83.5V16C83.5 15.6022 83.342 15.2206 83.0607 14.9393C82.7794 14.658 82.3978 14.5 82 14.5H68C67.6022 14.5 67.2206 14.658 66.9393 14.9393C66.658 15.2206 66.5 15.6022 66.5 16V77.5H58.5V39C58.5 38.6022 58.342 38.2206 58.0607 37.9393C57.7794 37.658 57.3978 37.5 57 37.5H43C42.6022 37.5 42.2206 37.658 41.9393 37.9393C41.658 38.2206 41.5 38.6022 41.5 39V77.5H33.5V61C33.5 60.6022 33.342 60.2206 33.0607 59.9393C32.7794 59.658 32.3978 59.5 32 59.5H18C17.6022 59.5 17.2206 59.658 16.9393 59.9393C16.658 60.2206 16.5 60.6022 16.5 61V77.5H12C11.6022 77.5 11.2206 77.658 10.9393 77.9393C10.658 78.2206 10.5 78.6022 10.5 79C10.5 79.3978 10.658 79.7794 10.9393 80.0607C11.2206 80.342 11.6022 80.5 12 80.5H88C88.3978 80.5 88.7794 80.342 89.0607 80.0607C89.342 79.7794 89.5 79.3978 89.5 79C89.5 78.6022 89.342 78.2206 89.0607 77.9393C88.7794 77.658 88.3978 77.5 88 77.5ZM69.5 17.5H80.5V77.5H69.5V17.5ZM44.5 40.5H55.5V77.5H44.5V40.5ZM19.5 62.5H30.5V77.5H19.5V62.5Z" fill="#FA4856"></path> <path d="M12.9999 49.5C13.3976 49.4996 13.7789 49.3414 14.0599 49.06L55.4999 7.62V14C55.4999 14.3978 55.6579 14.7794 55.9392 15.0607C56.2205 15.342 56.6021 15.5 56.9999 15.5C57.3977 15.5 57.7793 15.342 58.0606 15.0607C58.3419 14.7794 58.4999 14.3978 58.4999 14V4C58.4984 3.81136 58.4611 3.62472 58.3899 3.45V3.45C58.3145 3.26574 58.2031 3.09834 58.0623 2.95755C57.9216 2.81677 57.7542 2.70542 57.5699 2.63V2.63C57.3903 2.54945 57.1966 2.50527 56.9999 2.5H46.9999C46.6021 2.5 46.2205 2.65804 45.9392 2.93934C45.6579 3.22064 45.4999 3.60218 45.4999 4C45.4999 4.39782 45.6579 4.77936 45.9392 5.06066C46.2205 5.34196 46.6021 5.5 46.9999 5.5H53.3799L11.9399 46.94C11.7304 47.1498 11.5877 47.4169 11.53 47.7077C11.4722 47.9985 11.5019 48.2999 11.6153 48.5738C11.7288 48.8478 11.9208 49.0819 12.1672 49.2468C12.4137 49.4116 12.7034 49.4997 12.9999 49.5V49.5Z" fill="#FA4856"></path> </svg> 