<?xml version="1.0" encoding="UTF-8"?> <svg xmlns="http://www.w3.org/2000/svg" width="101" height="101" viewBox="0 0 101 101" fill="none"> <path d="M54.8499 40.5426C54.2289 39.9946 53.282 40.0526 52.733 40.6746L31.9419 64.2286C31.3939 64.8496 31.4529 65.7976 32.0739 66.3456C32.3589 66.5976 32.7129 66.7206 33.0659 66.7206C33.4809 66.7206 33.8949 66.5496 34.1909 66.2136L54.9819 42.6596C55.5299 42.0386 55.4709 41.0916 54.8499 40.5426Z" fill="white"></path> <path d="M35.893 50.7247C37.579 50.0047 38.885 48.6697 39.571 46.9677C40.257 45.2637 40.238 43.3957 39.52 41.7067C38.801 40.0167 37.466 38.7077 35.764 38.0227C32.253 36.6057 28.239 38.3147 26.814 41.8337C26.128 43.5377 26.149 45.4067 26.874 47.0977C27.597 48.7867 28.935 50.0937 30.637 50.7787C31.466 51.1127 32.333 51.2787 33.2 51.2787C34.113 51.2797 35.027 51.0947 35.893 50.7247ZM29.631 45.9177C29.223 44.9647 29.211 43.9127 29.596 42.9577C30.208 41.4457 31.666 40.5247 33.201 40.5247C33.681 40.5247 34.17 40.6147 34.642 40.8057C35.602 41.1917 36.353 41.9287 36.759 42.8807C37.165 43.8327 37.174 44.8857 36.787 45.8457C36.4 46.8067 35.664 47.5587 34.714 47.9647C33.763 48.3697 32.714 48.3807 31.757 47.9957C30.795 47.6097 30.04 46.8707 29.631 45.9177Z" fill="white"></path> <path d="M86.5699 43.7948C86.5589 43.3968 86.3889 43.0198 86.0989 42.7458C85.8099 42.4728 85.4329 42.3258 85.0239 42.3378L76.4019 42.6008L78.3479 36.4758C78.4679 36.0968 78.4329 35.6848 78.2499 35.3318C78.0669 34.9778 77.7509 34.7118 77.3719 34.5918L63.1299 30.0668L60.7029 3.91276C60.6309 3.14176 59.8979 2.55176 59.1229 2.55176C58.4969 2.55176 57.9369 2.94076 57.7179 3.52676L49.4239 25.7128L24.6919 17.8538C23.9059 17.6048 23.0599 18.0398 22.8079 18.8298L6.06891 71.5078C5.81791 72.2978 6.25491 73.1408 7.04491 73.3918L33.9209 81.9328L34.3189 95.9928C34.3419 96.8058 35.0089 97.4508 35.8179 97.4508C35.8329 97.4508 35.8469 97.4508 35.8609 97.4508L86.5429 96.0218C86.9399 96.0108 87.3169 95.8418 87.5909 95.5528C87.8639 95.2638 88.0109 94.8778 87.9999 94.4798L86.5699 43.7948ZM58.3049 10.5258L60.0259 29.0798L52.2869 26.6208L58.3049 10.5258ZM25.2139 21.1668L75.0349 36.9968L59.2049 86.8178L9.38291 70.9858L25.2139 21.1668ZM37.2759 94.4058L36.9499 82.8928L59.7259 90.1308C59.8739 90.1778 60.0269 90.2008 60.1799 90.2008C60.4179 90.2008 60.6549 90.1438 60.8689 90.0328C61.2229 89.8498 61.4889 89.5338 61.6089 89.1548L75.4379 45.6318L83.6119 45.3818L84.9579 93.0618L37.2759 94.4058Z" fill="white"></path> <path d="M53.8638 58.5331C52.1608 57.8461 50.2908 57.8631 48.5988 58.5841C46.9088 59.3041 45.5998 60.6381 44.9138 62.3421C44.2278 64.0441 44.2478 65.9121 44.9688 67.6021C45.6898 69.2921 47.0268 70.6001 48.7298 71.2831C49.5598 71.6181 50.4298 71.7851 51.2978 71.7851C52.2108 71.7851 53.1228 71.6001 53.9868 71.2321C55.6768 70.5131 56.9848 69.1781 57.6708 67.4731C58.3568 65.7691 58.3378 63.9011 57.6198 62.2141C56.9018 60.5251 55.5668 59.2181 53.8638 58.5331ZM54.8888 66.3531C54.5028 67.3131 53.7658 68.0651 52.8138 68.4711C51.8628 68.8771 50.8118 68.8861 49.8498 68.4991C48.8888 68.1141 48.1358 67.3771 47.7288 66.4241C47.3228 65.4721 47.3118 64.4201 47.6978 63.4621C48.0838 62.5021 48.8218 61.7491 49.7748 61.3431C50.2628 61.1351 50.7768 61.0311 51.2918 61.0311C51.7828 61.0311 52.2738 61.1261 52.7438 61.3151C53.7038 61.7011 54.4558 62.4381 54.8608 63.3881C55.2648 64.3391 55.2748 65.3921 54.8888 66.3531Z" fill="white"></path> </svg> 