<?xml version="1.0" encoding="UTF-8"?> <svg xmlns="http://www.w3.org/2000/svg" width="211" height="64" viewBox="0 0 211 64" fill="none"> <g clip-path="url(#clip0)"> <path d="M55.9628 55.4865H47.4493C42.9842 55.4865 39.4121 51.8549 39.4121 47.4493C39.4121 42.9842 43.0437 39.4121 47.4493 39.4121H55.9628C60.4279 39.4121 64 43.0437 64 47.4493C64 51.9144 60.4279 55.4865 55.9628 55.4865Z" fill="white"></path> <path d="M47.9851 0H16.0149C7.14419 0 0 7.14419 0 16.0149V48.0447C0 56.8558 7.14419 64.0595 16.0149 64.0595C24.826 64.0595 32.0298 56.9153 32.0298 48.0447C32.0298 39.174 39.174 32.0298 48.0447 32.0298C56.8558 32.0298 64.0595 24.8856 64.0595 16.0149C64.0595 7.14419 56.8558 0 47.9851 0Z" fill="white"></path> <path d="M79.3601 16.8486H103.234V23.8737H87.2782V31.6133H100.971V38.2217H87.2782V50.6644H79.4196V16.8486H79.3601Z" fill="white"></path> <path d="M122.404 51.4384C119.606 51.4384 117.046 50.9026 114.783 49.7714C112.521 48.6403 110.735 47.0328 109.425 44.9491C108.115 42.8654 107.46 40.4244 107.46 37.6263V16.8486H115.319V37.031C115.319 38.4003 115.617 39.6505 116.153 40.7817C116.688 41.8533 117.522 42.7463 118.534 43.3417C119.606 43.937 120.856 44.2942 122.344 44.2942C123.773 44.2942 125.023 43.9965 126.095 43.3417C127.166 42.7463 127.94 41.8533 128.476 40.7817C129.012 39.6505 129.31 38.4598 129.31 37.0905V16.8486H137.168V37.6263C137.168 40.3054 136.573 42.6868 135.323 44.7705C134.073 46.8542 132.346 48.5212 130.084 49.7119C127.94 50.8431 125.321 51.4384 122.404 51.4384Z" fill="white"></path> <path d="M143.658 16.8486H158.482C160.863 16.8486 162.947 17.3249 164.793 18.2775C166.638 19.23 168.067 20.5398 169.139 22.2663C170.21 23.9928 170.687 25.9575 170.687 28.2198C170.687 29.7082 170.448 31.137 169.913 32.4468C169.377 33.7565 168.662 34.8877 167.71 35.8403C166.757 36.7928 165.626 37.5668 164.316 38.1026L171.46 50.6644H162.411L156.517 39.3528C156.279 39.3528 155.981 39.3528 155.743 39.3528C155.505 39.3528 155.267 39.3528 154.969 39.3528H151.457V50.6644H143.598V16.8486H143.658ZM158.184 32.7444C159.018 32.7444 159.851 32.5658 160.566 32.1491C161.28 31.7324 161.816 31.1965 162.233 30.5417C162.649 29.8868 162.828 29.1128 162.828 28.2198C162.828 27.4458 162.649 26.7314 162.233 26.017C161.816 25.3621 161.28 24.8263 160.566 24.4096C159.851 23.9928 159.077 23.8142 158.244 23.8142H151.576V32.7444H158.184Z" fill="white"></path> <path d="M191.822 51.4384C188.488 51.4384 185.392 50.6644 182.594 49.057C179.796 47.4495 177.533 45.3063 175.926 42.6272C174.259 39.8886 173.425 36.9118 173.425 33.697C173.425 30.4821 174.259 27.5053 175.926 24.7667C177.593 22.0877 179.796 19.9444 182.594 18.337C185.392 16.7295 188.488 15.9556 191.822 15.9556C195.156 15.9556 198.192 16.7295 201.049 18.337C203.848 19.9444 206.11 22.0877 207.777 24.7667C209.444 27.4458 210.277 30.4225 210.277 33.697C210.277 36.9118 209.444 39.8886 207.777 42.6272C206.11 45.3658 203.907 47.5091 201.049 49.057C198.192 50.6644 195.096 51.4384 191.822 51.4384ZM191.822 44.2346C193.727 44.2346 195.513 43.7584 197.12 42.8653C198.728 41.9723 199.978 40.7221 200.93 39.1146C201.883 37.5072 202.359 35.7211 202.359 33.697C202.359 31.6728 201.883 29.8867 200.93 28.2793C199.978 26.6718 198.728 25.4216 197.12 24.5286C195.513 23.6356 193.727 23.1593 191.822 23.1593C189.857 23.1593 188.13 23.6356 186.523 24.5286C184.916 25.4216 183.665 26.6718 182.713 28.2793C181.76 29.8867 181.343 31.6728 181.343 33.697C181.343 35.6616 181.82 37.5072 182.772 39.0551C183.725 40.6625 184.975 41.9128 186.583 42.8058C188.13 43.7584 189.857 44.2346 191.822 44.2346Z" fill="white"></path> <path d="M32 47.9851C32 56.7963 24.8625 64 16 64C7.13755 64 0 56.8558 0 47.9851V16.0149C0 7.14419 7.13755 0 16 0H48C56.803 0 64 7.14419 64 16.0149C64 24.826 56.8624 32.0298 48 32.0298C39.1375 32.0298 32 39.174 32 47.9851Z" fill="white"></path> <path d="M55.9108 55.6057H47.4052C42.9443 55.6057 39.3755 51.974 39.3755 47.5685C39.3755 43.1033 43.0037 39.5312 47.4052 39.5312H55.9108C60.3718 39.5312 63.9406 43.1629 63.9406 47.5685C63.9406 52.0336 60.3718 55.6057 55.9108 55.6057Z" fill="white"></path> </g> <defs> <clipPath id="clip0"> <rect width="210.158" height="64" fill="white"></rect> </clipPath> </defs> </svg> 