<?xml version="1.0" encoding="UTF-8"?> <svg xmlns="http://www.w3.org/2000/svg" width="85" height="84" viewBox="0 0 85 84" fill="none"> <path d="M83.2 14.2699L70.73 1.79992C70.3177 1.38749 69.8282 1.06033 69.2894 0.837119C68.7507 0.613909 68.1732 0.499023 67.59 0.499023C67.0069 0.499023 66.4294 0.613909 65.8906 0.837119C65.3519 1.06033 64.8623 1.38749 64.45 1.79992L40.8 25.4499C40.3876 25.8622 40.0605 26.3517 39.8372 26.8905C39.614 27.4293 39.4991 28.0067 39.4991 28.5899C39.4991 29.1731 39.614 29.7506 39.8372 30.2893C40.0605 30.8281 40.3876 31.3176 40.8 31.7299L46 36.8999L37.43 45.4699L31.74 39.7999C30.9056 38.9664 29.7745 38.4982 28.595 38.4982C27.4156 38.4982 26.2844 38.9664 25.45 39.7999L1.80004 63.4399C0.966498 64.2743 0.498291 65.4055 0.498291 66.5849C0.498291 67.7643 0.966498 68.8955 1.80004 69.7299L14.26 82.1999C15.0957 83.031 16.2264 83.4976 17.405 83.4976C18.5837 83.4976 19.7143 83.031 20.55 82.1999L44.2 58.5599C45.0336 57.7255 45.5018 56.5943 45.5018 55.4149C45.5018 54.2355 45.0336 53.1043 44.2 52.2699L39.53 47.5999L48.1 38.9999L53.27 44.1699C53.6824 44.5823 54.1719 44.9095 54.7106 45.1327C55.2494 45.3559 55.8269 45.4708 56.41 45.4708C56.9932 45.4708 57.5707 45.3559 58.1094 45.1327C58.6482 44.9095 59.1377 44.5823 59.55 44.1699L83.2 20.5499C83.6125 20.1376 83.9396 19.6481 84.1628 19.1093C84.386 18.5706 84.5009 17.9931 84.5009 17.4099C84.5009 16.8267 84.386 16.2493 84.1628 15.7105C83.9396 15.1717 83.6125 14.6822 83.2 14.2699V14.2699ZM42.08 54.3799C42.3518 54.6518 42.5044 55.0205 42.5044 55.4049C42.5044 55.7893 42.3518 56.158 42.08 56.4299L18.43 80.0799C18.1581 80.3517 17.7895 80.5043 17.405 80.5043C17.0206 80.5043 16.6519 80.3517 16.38 80.0799L3.92004 67.6199C3.6483 67.348 3.49565 66.9793 3.49565 66.5949C3.49565 66.2105 3.6483 65.8418 3.92004 65.5699L27.57 41.9199C27.8419 41.6482 28.2106 41.4955 28.595 41.4955C28.9795 41.4955 29.3481 41.6482 29.62 41.9199L35.29 47.5899L28.44 54.4399C28.2927 54.5772 28.1745 54.7428 28.0925 54.9268C28.0105 55.1108 27.9664 55.3095 27.9629 55.5109C27.9593 55.7123 27.9964 55.9123 28.0718 56.0991C28.1472 56.2859 28.2595 56.4556 28.402 56.598C28.5444 56.7404 28.7141 56.8527 28.9008 56.9282C29.0876 57.0036 29.2877 57.0407 29.4891 57.0371C29.6905 57.0335 29.8891 56.9895 30.0731 56.9075C30.2571 56.8255 30.4227 56.7073 30.56 56.5599L37.41 49.7099L42.08 54.3799ZM81.08 18.3799L57.43 42.0799C57.1582 42.3322 56.801 42.4725 56.43 42.4725C56.0591 42.4725 55.7019 42.3322 55.43 42.0799L50.22 36.8999L57.56 29.5599C57.825 29.2756 57.9692 28.8995 57.9624 28.5109C57.9555 28.1223 57.7981 27.7515 57.5233 27.4767C57.2485 27.2018 56.8777 27.0444 56.4891 27.0376C56.1005 27.0307 55.7244 27.175 55.44 27.4399L48.1 34.7799L42.93 29.6099C42.671 29.3415 42.5262 28.983 42.5262 28.6099C42.5262 28.2369 42.671 27.8784 42.93 27.6099L66.57 3.91992C66.8385 3.66084 67.197 3.51606 67.57 3.51606C67.9431 3.51606 68.3016 3.66084 68.57 3.91992L81.08 16.3899C81.3391 16.6583 81.4839 17.0169 81.4839 17.3899C81.4839 17.763 81.3391 18.1215 81.08 18.3899V18.3799Z" fill="white"></path> </svg> 