<?xml version="1.0" encoding="UTF-8"?> <svg xmlns="http://www.w3.org/2000/svg" width="1333" height="1333" viewBox="0 0 1333 1333" fill="none"> <path d="M666.5 999.44C666.5 1182.96 517.838 1333 333.25 1333C148.662 1333 0 1184.2 0 999.44L0 333.56C0 148.8 148.662 0 333.25 0L999.75 0C1183.1 0 1333 148.8 1333 333.56C1333 517.08 1184.34 667.12 999.75 667.12C815.162 667.12 666.5 815.92 666.5 999.44Z" fill="#263238" fill-opacity="0.08"></path> <path d="M1164.52 1158.16H987.362C894.449 1158.16 820.118 1082.52 820.118 990.76C820.118 897.76 895.687 823.36 987.362 823.36H1164.52C1257.43 823.36 1331.76 899 1331.76 990.76C1331.76 1083.76 1257.43 1158.16 1164.52 1158.16Z" fill="#263238" fill-opacity="0.08"></path> </svg> 