<?xml version="1.0" encoding="UTF-8"?> <svg xmlns="http://www.w3.org/2000/svg" width="101" height="101" viewBox="0 0 101 101" fill="none"> <path d="M52.5 79.0001H18.5C18.8712 71.7261 22.0181 64.8714 27.2924 59.8483C32.5666 54.8252 39.5665 52.0162 46.85 52.0001C52.2907 51.9953 57.6159 53.5689 62.18 56.5301C62.5155 56.7476 62.9237 56.8229 63.3147 56.7394C63.7057 56.656 64.0475 56.4206 64.265 56.0851C64.4825 55.7496 64.5578 55.3415 64.4743 54.9504C64.3909 54.5594 64.1555 54.2176 63.82 54.0001C58.7576 50.7212 52.8515 48.9841 46.82 49.0001C38.4937 49.0372 30.5216 52.3735 24.6508 58.2781C18.78 64.1826 15.4894 72.1737 15.5 80.5001C15.5 80.8979 15.6581 81.2795 15.9394 81.5608C16.2207 81.8421 16.6022 82.0001 17 82.0001H52.5C52.8979 82.0001 53.2794 81.8421 53.5607 81.5608C53.842 81.2795 54 80.8979 54 80.5001C54 80.1023 53.842 79.7208 53.5607 79.4394C53.2794 79.1581 52.8979 79.0001 52.5 79.0001Z" fill="#FA4856"></path> <path d="M47 45.5C50.659 45.5 54.2357 44.415 57.278 42.3822C60.3204 40.3494 62.6916 37.4601 64.0918 34.0797C65.492 30.6992 65.8584 26.9795 65.1445 23.3908C64.4307 19.8022 62.6687 16.5058 60.0815 13.9185C57.4942 11.3313 54.1978 9.56931 50.6092 8.85548C47.0205 8.14165 43.3008 8.50802 39.9204 9.90824C36.5399 11.3085 33.6506 13.6796 31.6178 16.722C29.585 19.7643 28.5 23.3411 28.5 27C28.5079 31.9041 30.4596 36.605 33.9273 40.0727C37.395 43.5404 42.0959 45.4921 47 45.5ZM47 11.5C50.0656 11.5 53.0624 12.4091 55.6113 14.1122C58.1603 15.8154 60.147 18.2362 61.3201 21.0684C62.4933 23.9007 62.8002 27.0172 62.2022 30.0239C61.6041 33.0306 60.1279 35.7924 57.9602 37.9602C55.7924 40.1279 53.0306 41.6041 50.0239 42.2022C47.0172 42.8002 43.9007 42.4933 41.0684 41.3201C38.2362 40.147 35.8154 38.1603 34.1122 35.6113C32.4091 33.0624 31.5 30.0656 31.5 27C31.5053 22.8908 33.14 18.9514 36.0457 16.0457C38.9514 13.14 42.8908 11.5053 47 11.5V11.5Z" fill="#FA4856"></path> <path d="M90.0599 65.3598L84.47 59.7698C84.1856 59.5048 83.8095 59.3606 83.4209 59.3674C83.0323 59.3743 82.6615 59.5317 82.3867 59.8065C82.1119 60.0814 81.9545 60.4521 81.9476 60.8407C81.9407 61.2293 82.085 61.6054 82.3499 61.8898L84.4499 63.9998H61.45C61.0521 63.9998 60.6706 64.1578 60.3893 64.4391C60.108 64.7204 59.95 65.1019 59.95 65.4998C59.95 65.8976 60.108 66.2791 60.3893 66.5604C60.6706 66.8417 61.0521 66.9998 61.45 66.9998H86.3L82.3 70.9998C82.1526 71.1371 82.0344 71.3027 81.9524 71.4867C81.8704 71.6707 81.8263 71.8693 81.8228 72.0707C81.8192 72.2721 81.8563 72.4722 81.9317 72.659C82.0071 72.8457 82.1194 73.0154 82.2619 73.1578C82.4043 73.3003 82.574 73.4126 82.7608 73.488C82.9475 73.5635 83.1476 73.6005 83.349 73.597C83.5504 73.5934 83.749 73.5493 83.933 73.4673C84.117 73.3853 84.2826 73.2671 84.4199 73.1198L90.01 67.5298C90.2909 67.2485 90.4486 66.8673 90.4486 66.4698C90.4486 66.0723 90.2909 65.691 90.01 65.4098L90.0599 65.3598Z" fill="#FA4856"></path> <path d="M87.5001 78.0001H62.0001L66.1201 73.8801C66.4026 73.599 66.5618 73.2172 66.5627 72.8186C66.5637 72.4201 66.4062 72.0376 66.1251 71.7551C65.844 71.4726 65.4622 71.3134 65.0637 71.3125C64.6651 71.3116 64.2826 71.469 64.0001 71.7501L58.4101 77.3401C58.1292 77.6214 57.9714 78.0026 57.9714 78.4001C57.9714 78.7976 58.1292 79.1789 58.4101 79.4601L64.0001 85.0601C64.1374 85.2075 64.303 85.3257 64.487 85.4077C64.671 85.4896 64.8697 85.5337 65.0711 85.5373C65.2725 85.5408 65.4725 85.5038 65.6593 85.4283C65.8461 85.3529 66.0158 85.2406 66.1582 85.0982C66.3006 84.9557 66.4129 84.7861 66.4884 84.5993C66.5638 84.4125 66.6009 84.2125 66.5973 84.0111C66.5937 83.8097 66.5497 83.611 66.4677 83.427C66.3857 83.243 66.2675 83.0774 66.1201 82.9401L64.1501 81.0001H87.5001C87.8979 81.0001 88.2795 80.8421 88.5608 80.5608C88.8421 80.2795 89.0001 79.8979 89.0001 79.5001C89.0001 79.1023 88.8421 78.7207 88.5608 78.4394C88.2795 78.1581 87.8979 78.0001 87.5001 78.0001Z" fill="#FA4856"></path> </svg> 